<svg width="128" height="128" viewBox="0 0 128 128" fill="none" xmlns="http://www.w3.org/2000/svg">
<rect width="128" height="128" fill="black"/>
<path d="M46 41.1429V32H14V96H46V86.8571H22V68.5714H46V59.4286H22V41.1429H46Z" fill="white"/>
<path d="M80 96H48V68.5714C48 66.1466 48 59.4286 48 59.4286C48 59.4286 53.8783 59.4286 56 59.4286H72V41.1429H48V32H72C74.1217 32 80 32.0013 80 32.0013C80 32.0013 80 38.718 80 41.1429V59.4286C80 61.8534 80 68.5714 80 68.5714C80 68.5714 74.1217 68.5714 72 68.5714H56V86.8571H80V96Z" fill="white"/>
<path d="M114 41.1429V32H82V96H114V86.8571H90V68.5714H114V59.4286H90V41.1429H114Z" fill="white"/>
</svg>
